PathFileType	4	(X/Y/Z)	C:/Users/opensim2020/Desktop/walking_exp_matlab/subject02_walking15_straight_03.trc	
DataRate	CameraRate	NumFrames	NumMarkers	Units	OrigDataRate	OrigDataStartFrame	OrigNumFrames	
100.00	100.00	5	42	mm	100.00	1303	103	
Frame#	Time	LFHD			RFHD			LBHD			RBHD			C7			T10			CLAV			STRN			RBAK			LSHO			LUPA			LELB			LFRM			LWRA			LWRB			LFIN			RSHO			RUPA			RELB			RFRM			RWRA			RWRB			RFIN			LASI			RASI			LPSI			RPSI			LTHI			LKNE			LTIB			LANK			LHEE			LTOE			RTHI			RKNE			RTIB			RANK			RHEE			RTOE			*39			*40			*41			
		X1	Y1	Z1	X2	Y2	Z2	X3	Y3	Z3	X4	Y4	Z4	X5	Y5	Z5	X6	Y6	Z6	X7	Y7	Z7	X8	Y8	Z8	X9	Y9	Z9	X10	Y10	Z10	X11	Y11	Z11	X12	Y12	Z12	X13	Y13	Z13	X14	Y14	Z14	X15	Y15	Z15	X16	Y16	Z16	X17	Y17	Z17	X18	Y18	Z18	X19	Y19	Z19	X20	Y20	Z20	X21	Y21	Z21	X22	Y22	Z22	X23	Y23	Z23	X24	Y24	Z24	X25	Y25	Z25	X26	Y26	Z26	X27	Y27	Z27	X28	Y28	Z28	X29	Y29	Z29	X30	Y30	Z30	X31	Y31	Z31	X32	Y32	Z32	X33	Y33	Z33	X34	Y34	Z34	X35	Y35	Z35	X36	Y36	Z36	X37	Y37	Z37	X38	Y38	Z38	X39	Y39	Z39	X40	Y40	Z40	X41	Y41	Z41	X42	Y42	Z42	

26	0.250	1398.07654	-393.48856	1692.87012	1542.17261	-391.69202	1679.52332	1395.59265	-532.15179	1632.93506	1538.45618	-542.51440	1619.37292	1470.37830	-598.24652	1493.81824	1493.47668	-662.07843	1221.67249	1459.01746	-463.23166	1419.27087	1477.83813	-417.24179	1247.40833	1546.59375	-663.27618	1325.61816	1290.88330	-537.36145	1454.16833	1208.18091	-608.13129	1268.76123	1186.64233	-657.31152	1147.22339	1149.04590	-716.03821	1041.47888	1132.67847	-733.70007	902.35547	1119.64734	-775.31683	938.46545	1094.35107	-797.21075	883.18127	1652.87891	-524.31140	1471.40576	1770.29382	-540.15051	1304.61877	1834.34351	-492.33923	1176.56519	1856.96619	-400.37112	1097.07483	1839.75037	-289.54758	1025.91626	1874.82764	-320.87061	994.89362	1881.50977	-251.66812	979.83105	1378.31018	-442.72614	951.78308	1635.84485	-462.64206	937.17017	1439.21448	-654.42792	1005.11603	1552.77600	-664.65546	1007.75616	1330.61975	-416.60876	657.41254	1388.79529	-372.16541	468.59772	1410.23462	-393.23178	277.59506	1466.82507	-352.90228	64.06953	1525.22388	-380.47220	38.35899	1445.29980	-200.73924	40.94069	1704.57727	-641.33966	665.97583	1684.63416	-714.81061	468.75674	1684.82458	-850.57379	335.18829	1656.28723	-963.17535	175.36761	1594.98047	-1005.92896	149.37531	1677.84229	-878.65326	31.84485	1488.23315	-484.44684	1772.06067	-3360.22314	2845.27710	1034.26050			 
27	0.260	1397.67383	-379.76013	1695.04187	1541.78809	-378.29358	1681.21912	1394.89905	-518.29419	1634.93677	1537.90039	-529.21118	1621.34595	1469.52222	-583.90662	1495.97949	1493.12231	-647.04248	1222.80579	1458.50439	-449.05542	1421.55908	1476.75305	-402.18823	1250.04407	1545.91455	-648.55865	1326.41223	1290.25659	-522.55573	1456.38074	1207.72302	-593.87891	1271.34570	1186.92188	-644.12439	1149.85962	1149.86914	-703.48291	1044.30933	1134.92761	-721.34406	904.59924	1120.98340	-762.45966	940.98706	1096.39783	-785.29254	885.60223	1651.96802	-510.52408	1473.64380	1769.07654	-527.49365	1306.67810	1832.15845	-481.86365	1177.68433	1854.27588	-390.56659	1097.18787	1837.14868	-280.13223	1025.86060	1871.65527	-311.70364	994.38647	1878.84509	-242.55728	979.80188	1377.22620	-426.62054	953.83429	1633.03918	-445.71176	938.80774	1438.54419	-638.37982	1007.23328	1553.59436	-647.92877	1009.71094	1328.72693	-401.37653	659.29828	1388.64832	-359.75620	469.32019	1408.39697	-383.69284	278.54340	1467.80981	-351.36755	64.50677	1525.82007	-379.32761	38.62531	1445.02661	-198.98096	38.91384	1705.14526	-621.22632	666.02850	1688.30798	-690.83374	468.16275	1688.35864	-830.59204	338.75992	1658.65906	-947.77740	183.12793	1596.24988	-990.06079	160.74387	1677.25037	-876.14197	32.04577	1487.91125	-470.84039	1774.03455	-3360.32251	2845.27563	1034.44592			 
28	0.270	1397.38330	-366.13156	1697.00586	1541.31323	-364.84906	1683.19666	1394.27039	-504.66107	1636.77808	1537.17749	-515.63483	1623.06250	1468.91602	-569.94037	1497.84607	1492.49536	-632.15332	1223.97510	1458.04993	-434.94476	1423.85657	1476.09473	-387.12262	1252.71924	1545.46008	-634.20569	1327.78674	1289.81018	-507.74130	1458.76746	1207.24963	-579.12823	1274.12793	1187.22559	-630.41980	1152.45386	1150.71509	-689.60376	1046.62781	1137.17175	-707.71106	906.74121	1122.36853	-748.61206	943.10822	1098.67456	-771.60010	886.94434	1651.12646	-496.92160	1475.85388	1767.89478	-515.01520	1308.82898	1829.81628	-471.44891	1178.95374	1851.53772	-381.15787	1097.26477	1834.25293	-271.49838	1025.19592	1868.32227	-303.22665	993.50507	1876.17114	-234.37428	979.06226	1376.03748	-410.73184	955.88776	1629.87036	-428.97742	940.68048	1437.84912	-622.41406	1009.30750	1554.20618	-631.46893	1011.57129	1327.80554	-388.23276	659.90143	1388.53577	-349.62784	469.22961	1409.20728	-377.21475	278.10071	1468.42102	-350.04327	64.80515	1526.32556	-378.57202	39.23269	1444.45544	-197.42790	37.52619	1705.83533	-600.40955	665.65381	1690.88745	-665.40253	466.66827	1691.74500	-808.50330	341.33832	1661.46716	-929.56494	189.68900	1598.02441	-972.03400	172.10170	1676.15759	-873.02881	31.48791	1487.37292	-457.40256	1775.89026	-3357.41724	2845.92090	1034.46240			 
29	0.280	1396.90247	-352.56116	1699.14551	1540.73914	-351.50385	1685.48865	1393.66064	-491.10779	1638.65210	1536.75159	-502.34131	1625.24988	1468.42993	-556.44550	1499.57178	1491.56641	-617.25403	1225.29590	1457.71960	-420.89392	1426.14417	1475.30737	-372.64877	1255.21851	1545.01172	-620.07458	1329.38867	1289.46851	-493.13123	1461.31580	1206.33960	-565.55048	1276.88843	1187.46191	-616.02948	1154.89685	1151.47864	-674.85541	1048.44727	1139.38049	-693.12042	908.25726	1123.55054	-733.63519	944.75000	1100.89380	-756.51013	887.74805	1649.90198	-483.63693	1477.97778	1766.78723	-502.80899	1310.86255	1827.73230	-461.42236	1180.25403	1848.83557	-372.05716	1097.28418	1831.32214	-263.07397	1024.01758	1865.07190	-295.30292	992.33630	1872.93970	-226.79364	977.17682	1374.67041	-395.14139	957.99707	1626.73193	-412.51556	942.64038	1437.33508	-606.67267	1011.27649	1554.50513	-615.37018	1013.15070	1328.09863	-376.86884	658.82465	1388.39417	-341.04269	468.25620	1410.86719	-372.43671	277.68976	1468.80420	-348.89011	64.75570	1526.38232	-378.21448	39.42666	1444.91833	-196.10109	36.62233	1706.39160	-578.83643	664.57434	1693.67383	-639.22809	464.66830	1694.42871	-784.61542	343.16336	1664.78162	-909.48877	196.04744	1600.47498	-952.64117	183.67805	1675.54810	-867.87433	33.20343	1486.80310	-444.03088	1778.01721	-3357.58569	2845.86450	1034.48425			 
30	0.290	1396.12573	-339.44962	1701.24902	1540.16846	-338.21436	1687.98303	1393.20471	-477.78296	1640.79297	1536.05432	-488.78345	1627.45898	1467.97485	-543.04816	1500.95581	1490.49963	-602.50085	1226.77942	1457.41541	-407.05338	1428.57690	1474.80115	-358.23227	1257.85132	1544.44141	-606.19769	1331.18091	1289.21802	-478.69833	1463.92432	1206.07275	-550.59802	1279.67285	1187.49780	-601.26642	1157.05798	1152.22766	-659.49878	1050.20496	1141.66650	-676.73260	909.65332	1124.71118	-717.59241	945.49023	1103.44104	-739.57452	887.53845	1649.17749	-470.87347	1480.03931	1766.14136	-490.67545	1312.78467	1825.42981	-451.34381	1181.32715	1846.17273	-363.18768	1097.02173	1828.33069	-255.32100	1022.26599	1861.96948	-287.97693	990.77942	1870.07446	-219.47260	974.88678	1373.19116	-380.03796	960.20709	1623.75610	-396.33914	944.58118	1436.88965	-591.24017	1012.99951	1554.52808	-599.59259	1014.66748	1328.84827	-367.04480	657.01868	1388.19470	-333.37326	467.22498	1411.63062	-368.74878	278.00940	1469.25781	-348.18539	64.98009	1526.52551	-378.03461	39.53482	1445.03601	-195.24588	35.81207	1706.62622	-556.77167	662.73071	1696.83118	-612.28070	462.33072	1696.66980	-759.47620	344.58505	1667.14380	-888.91479	203.01506	1601.86719	-932.49915	195.02815	1674.56482	-857.49158	38.40602	1485.78772	-431.04263	1780.19458	-3360.49976	2845.37378	1034.41333			 
